# Wavefront OBJ file automatically generated by Tiled2Unity

# Vertices (Count = 162)
v -5.12 -51.2 0
v -6.4 -51.2 0
v -6.4 -49.92 0
v -5.12 -49.92 0
v -7.68 -51.2 0
v -7.68 -49.92 0
v -8.96 -51.2 0
v -8.96 -49.92 0
v -10.24 -51.2 0
v -10.24 -49.92 0
v -11.52 -51.2 0
v -11.52 -49.92 0
v -16.64 -51.2 0
v -17.92 -51.2 0
v -17.92 -49.92 0
v -16.64 -49.92 0
v -19.2 -51.2 0
v -19.2 -49.92 0
v -20.48 -51.2 0
v -20.48 -49.92 0
v -21.76 -51.2 0
v -21.76 -49.92 0
v -23.04 -51.2 0
v -23.04 -49.92 0
v -24.32 -51.2 0
v -24.32 -49.92 0
v -25.6 -51.2 0
v -25.6 -49.92 0
v -30.72 -51.2 0
v -32 -51.2 0
v -32 -49.92 0
v -30.72 -49.92 0
v -33.28 -51.2 0
v -33.28 -49.92 0
v -34.56 -51.2 0
v -34.56 -49.92 0
v -35.84 -51.2 0
v -35.84 -49.92 0
v -37.12 -51.2 0
v -37.12 -49.92 0
v -38.4 -51.2 0
v -38.4 -49.92 0
v -39.68 -51.2 0
v -39.68 -49.92 0
v -40.96 -51.2 0
v -40.96 -49.92 0
v -5.12 -52.48 0
v -6.4 -52.48 0
v -7.68 -52.48 0
v -8.96 -52.48 0
v -10.24 -52.48 0
v -11.52 -52.48 0
v -16.64 -52.48 0
v -17.92 -52.48 0
v -19.2 -52.48 0
v -20.48 -52.48 0
v -21.76 -52.48 0
v -23.04 -52.48 0
v -24.32 -52.48 0
v -25.6 -52.48 0
v -30.72 -52.48 0
v -32 -52.48 0
v -33.28 -52.48 0
v -34.56 -52.48 0
v -35.84 -52.48 0
v -37.12 -52.48 0
v -38.4 -52.48 0
v -39.68 -52.48 0
v -40.96 -52.48 0
v -5.12 -53.76 0
v -6.4 -53.76 0
v -7.68 -53.76 0
v -8.96 -53.76 0
v -10.24 -53.76 0
v -11.52 -53.76 0
v -12.8 -53.76 0
v -12.8 -52.48 0
v -14.08 -53.76 0
v -14.08 -52.48 0
v -15.36 -53.76 0
v -15.36 -52.48 0
v -16.64 -53.76 0
v -17.92 -53.76 0
v -19.2 -53.76 0
v -20.48 -53.76 0
v -21.76 -53.76 0
v -23.04 -53.76 0
v -24.32 -53.76 0
v -25.6 -53.76 0
v -26.88 -53.76 0
v -26.88 -52.48 0
v -28.16 -53.76 0
v -28.16 -52.48 0
v -29.44 -53.76 0
v -29.44 -52.48 0
v -30.72 -53.76 0
v -32 -53.76 0
v -33.28 -53.76 0
v -34.56 -53.76 0
v -35.84 -53.76 0
v -37.12 -53.76 0
v -38.4 -53.76 0
v -39.68 -53.76 0
v -40.96 -53.76 0
v -5.12 -55.04 0
v -6.4 -55.04 0
v -7.68 -55.04 0
v -8.96 -55.04 0
v -10.24 -55.04 0
v -11.52 -55.04 0
v -12.8 -55.04 0
v -14.08 -55.04 0
v -15.36 -55.04 0
v -16.64 -55.04 0
v -17.92 -55.04 0
v -19.2 -55.04 0
v -20.48 -55.04 0
v -21.76 -55.04 0
v -23.04 -55.04 0
v -24.32 -55.04 0
v -25.6 -55.04 0
v -26.88 -55.04 0
v -28.16 -55.04 0
v -29.44 -55.04 0
v -30.72 -55.04 0
v -32 -55.04 0
v -33.28 -55.04 0
v -34.56 -55.04 0
v -35.84 -55.04 0
v -37.12 -55.04 0
v -38.4 -55.04 0
v -39.68 -55.04 0
v -40.96 -55.04 0
v -5.12 -56.32 0
v -6.4 -56.32 0
v -7.68 -56.32 0
v -8.96 -56.32 0
v -10.24 -56.32 0
v -11.52 -56.32 0
v -12.8 -56.32 0
v -14.08 -56.32 0
v -15.36 -56.32 0
v -16.64 -56.32 0
v -17.92 -56.32 0
v -19.2 -56.32 0
v -20.48 -56.32 0
v -21.76 -56.32 0
v -23.04 -56.32 0
v -24.32 -56.32 0
v -25.6 -56.32 0
v -26.88 -56.32 0
v -28.16 -56.32 0
v -29.44 -56.32 0
v -30.72 -56.32 0
v -32 -56.32 0
v -33.28 -56.32 0
v -34.56 -56.32 0
v -35.84 -56.32 0
v -37.12 -56.32 0
v -38.4 -56.32 0
v -39.68 -56.32 0
v -40.96 -56.32 0

# Texture cooridinates (Count = 12)
vt 0.04546009 0.9166768
vt 0.09090354 0.9166768
vt 0.09090354 0.9999898
vt 0.04546009 0.9999898
vt 0.09091464 0.9166768
vt 0.1363581 0.9166768
vt 0.1363581 0.9999898
vt 0.09091464 0.9999898
vt 0.1363692 0.9166768
vt 0.1818126 0.9166768
vt 0.1818126 0.9999898
vt 0.1363692 0.9999898

# Normal
vn 0 0 -1

# Groups (Count = 1)

g mesh_0001
f 1/1/1 2/2/1 3/3/1 4/4/1
f 2/5/1 5/6/1 6/7/1 3/8/1
f 5/9/1 7/10/1 8/11/1 6/12/1
f 7/9/1 9/10/1 10/11/1 8/12/1
f 9/1/1 11/2/1 12/3/1 10/4/1
f 13/9/1 14/10/1 15/11/1 16/12/1
f 14/1/1 17/2/1 18/3/1 15/4/1
f 17/1/1 19/2/1 20/3/1 18/4/1
f 19/5/1 21/6/1 22/7/1 20/8/1
f 21/9/1 23/10/1 24/11/1 22/12/1
f 23/1/1 25/2/1 26/3/1 24/4/1
f 25/1/1 27/2/1 28/3/1 26/4/1
f 29/1/1 30/2/1 31/3/1 32/4/1
f 30/1/1 33/2/1 34/3/1 31/4/1
f 33/1/1 35/2/1 36/3/1 34/4/1
f 35/1/1 37/2/1 38/3/1 36/4/1
f 37/1/1 39/2/1 40/3/1 38/4/1
f 39/1/1 41/2/1 42/3/1 40/4/1
f 41/5/1 43/6/1 44/7/1 42/8/1
f 43/9/1 45/10/1 46/11/1 44/12/1
f 47/1/1 48/2/1 2/3/1 1/4/1
f 48/5/1 49/6/1 5/7/1 2/8/1
f 49/9/1 50/10/1 7/11/1 5/12/1
f 50/5/1 51/6/1 9/7/1 7/8/1
f 51/9/1 52/10/1 11/11/1 9/12/1
f 53/9/1 54/10/1 14/11/1 13/12/1
f 54/9/1 55/10/1 17/11/1 14/12/1
f 55/9/1 56/10/1 19/11/1 17/12/1
f 56/9/1 57/10/1 21/11/1 19/12/1
f 57/9/1 58/10/1 23/11/1 21/12/1
f 58/9/1 59/10/1 25/11/1 23/12/1
f 59/9/1 60/10/1 27/11/1 25/12/1
f 61/9/1 62/10/1 30/11/1 29/12/1
f 62/9/1 63/10/1 33/11/1 30/12/1
f 63/9/1 64/10/1 35/11/1 33/12/1
f 64/9/1 65/10/1 37/11/1 35/12/1
f 65/9/1 66/10/1 39/11/1 37/12/1
f 66/1/1 67/2/1 41/3/1 39/4/1
f 67/5/1 68/6/1 43/7/1 41/8/1
f 68/9/1 69/10/1 45/11/1 43/12/1
f 70/1/1 71/2/1 48/3/1 47/4/1
f 71/5/1 72/6/1 49/7/1 48/8/1
f 72/9/1 73/10/1 50/11/1 49/12/1
f 73/1/1 74/2/1 51/3/1 50/4/1
f 74/1/1 75/2/1 52/3/1 51/4/1
f 75/5/1 76/6/1 77/7/1 52/8/1
f 76/9/1 78/10/1 79/11/1 77/12/1
f 78/1/1 80/2/1 81/3/1 79/4/1
f 80/5/1 82/6/1 53/7/1 81/8/1
f 82/9/1 83/10/1 54/11/1 53/12/1
f 83/5/1 84/6/1 55/7/1 54/8/1
f 84/9/1 85/10/1 56/11/1 55/12/1
f 85/1/1 86/2/1 57/3/1 56/4/1
f 86/1/1 87/2/1 58/3/1 57/4/1
f 87/1/1 88/2/1 59/3/1 58/4/1
f 88/5/1 89/6/1 60/7/1 59/8/1
f 89/1/1 90/2/1 91/3/1 60/4/1
f 90/1/1 92/2/1 93/3/1 91/4/1
f 92/1/1 94/2/1 95/3/1 93/4/1
f 94/1/1 96/2/1 61/3/1 95/4/1
f 96/5/1 97/6/1 62/7/1 61/8/1
f 97/1/1 98/2/1 63/3/1 62/4/1
f 98/1/1 99/2/1 64/3/1 63/4/1
f 99/1/1 100/2/1 65/3/1 64/4/1
f 100/5/1 101/6/1 66/7/1 65/8/1
f 101/1/1 102/2/1 67/3/1 66/4/1
f 102/5/1 103/6/1 68/7/1 67/8/1
f 103/9/1 104/10/1 69/11/1 68/12/1
f 105/1/1 106/2/1 71/3/1 70/4/1
f 106/1/1 107/2/1 72/3/1 71/4/1
f 107/1/1 108/2/1 73/3/1 72/4/1
f 108/1/1 109/2/1 74/3/1 73/4/1
f 109/1/1 110/2/1 75/3/1 74/4/1
f 110/1/1 111/2/1 76/3/1 75/4/1
f 111/1/1 112/2/1 78/3/1 76/4/1
f 112/1/1 113/2/1 80/3/1 78/4/1
f 113/1/1 114/2/1 82/3/1 80/4/1
f 114/1/1 115/2/1 83/3/1 82/4/1
f 115/1/1 116/2/1 84/3/1 83/4/1
f 116/1/1 117/2/1 85/3/1 84/4/1
f 117/1/1 118/2/1 86/3/1 85/4/1
f 118/1/1 119/2/1 87/3/1 86/4/1
f 119/1/1 120/2/1 88/3/1 87/4/1
f 120/1/1 121/2/1 89/3/1 88/4/1
f 121/1/1 122/2/1 90/3/1 89/4/1
f 122/1/1 123/2/1 92/3/1 90/4/1
f 123/1/1 124/2/1 94/3/1 92/4/1
f 124/1/1 125/2/1 96/3/1 94/4/1
f 125/1/1 126/2/1 97/3/1 96/4/1
f 126/1/1 127/2/1 98/3/1 97/4/1
f 127/1/1 128/2/1 99/3/1 98/4/1
f 128/1/1 129/2/1 100/3/1 99/4/1
f 129/1/1 130/2/1 101/3/1 100/4/1
f 130/1/1 131/2/1 102/3/1 101/4/1
f 131/5/1 132/6/1 103/7/1 102/8/1
f 132/9/1 133/10/1 104/11/1 103/12/1
f 134/1/1 135/2/1 106/3/1 105/4/1
f 135/1/1 136/2/1 107/3/1 106/4/1
f 136/1/1 137/2/1 108/3/1 107/4/1
f 137/1/1 138/2/1 109/3/1 108/4/1
f 138/5/1 139/6/1 110/7/1 109/8/1
f 139/9/1 140/10/1 111/11/1 110/12/1
f 140/9/1 141/10/1 112/11/1 111/12/1
f 141/1/1 142/2/1 113/3/1 112/4/1
f 142/5/1 143/6/1 114/7/1 113/8/1
f 143/9/1 144/10/1 115/11/1 114/12/1
f 144/9/1 145/10/1 116/11/1 115/12/1
f 145/9/1 146/10/1 117/11/1 116/12/1
f 146/1/1 147/2/1 118/3/1 117/4/1
f 147/5/1 148/6/1 119/7/1 118/8/1
f 148/1/1 149/2/1 120/3/1 119/4/1
f 149/1/1 150/2/1 121/3/1 120/4/1
f 150/5/1 151/6/1 122/7/1 121/8/1
f 151/1/1 152/2/1 123/3/1 122/4/1
f 152/1/1 153/2/1 124/3/1 123/4/1
f 153/5/1 154/6/1 125/7/1 124/8/1
f 154/1/1 155/2/1 126/3/1 125/4/1
f 155/5/1 156/6/1 127/7/1 126/8/1
f 156/1/1 157/2/1 128/3/1 127/4/1
f 157/1/1 158/2/1 129/3/1 128/4/1
f 158/1/1 159/2/1 130/3/1 129/4/1
f 159/5/1 160/6/1 131/7/1 130/8/1
f 160/9/1 161/10/1 132/11/1 131/12/1
f 161/9/1 162/10/1 133/11/1 132/12/1

