# Wavefront OBJ file automatically generated by Tiled2Unity

# Vertices (Count = 168)
v 0 -58.88 0
v -1.28 -58.88 0
v -1.28 -57.6 0
v 0 -57.6 0
v -2.56 -58.88 0
v -2.56 -57.6 0
v -3.84 -58.88 0
v -3.84 -57.6 0
v -5.12 -58.88 0
v -5.12 -57.6 0
v -6.4 -58.88 0
v -6.4 -57.6 0
v -11.52 -58.88 0
v -12.8 -58.88 0
v -12.8 -57.6 0
v -11.52 -57.6 0
v -14.08 -58.88 0
v -14.08 -57.6 0
v -15.36 -58.88 0
v -15.36 -57.6 0
v -16.64 -58.88 0
v -16.64 -57.6 0
v -17.92 -58.88 0
v -17.92 -57.6 0
v -19.2 -58.88 0
v -19.2 -57.6 0
v -20.48 -58.88 0
v -20.48 -57.6 0
v -21.76 -58.88 0
v -21.76 -57.6 0
v -23.04 -58.88 0
v -23.04 -57.6 0
v -24.32 -58.88 0
v -24.32 -57.6 0
v -25.6 -58.88 0
v -25.6 -57.6 0
v -26.88 -58.88 0
v -26.88 -57.6 0
v -28.16 -58.88 0
v -28.16 -57.6 0
v -29.44 -58.88 0
v -29.44 -57.6 0
v -30.72 -58.88 0
v -30.72 -57.6 0
v -32 -58.88 0
v -32 -57.6 0
v -33.28 -58.88 0
v -33.28 -57.6 0
v -34.56 -58.88 0
v -34.56 -57.6 0
v -35.84 -58.88 0
v -35.84 -57.6 0
v 0 -60.16 0
v -1.28 -60.16 0
v -2.56 -60.16 0
v -3.84 -60.16 0
v -5.12 -60.16 0
v -6.4 -60.16 0
v -11.52 -60.16 0
v -12.8 -60.16 0
v -14.08 -60.16 0
v -15.36 -60.16 0
v -16.64 -60.16 0
v -17.92 -60.16 0
v -19.2 -60.16 0
v -20.48 -60.16 0
v -21.76 -60.16 0
v -23.04 -60.16 0
v -24.32 -60.16 0
v -25.6 -60.16 0
v -26.88 -60.16 0
v -28.16 -60.16 0
v -29.44 -60.16 0
v -30.72 -60.16 0
v -32 -60.16 0
v -33.28 -60.16 0
v -34.56 -60.16 0
v -35.84 -60.16 0
v 0 -61.44 0
v -1.28 -61.44 0
v -2.56 -61.44 0
v -3.84 -61.44 0
v -5.12 -61.44 0
v -6.4 -61.44 0
v -7.68 -61.44 0
v -7.68 -60.16 0
v -8.96 -61.44 0
v -8.96 -60.16 0
v -10.24 -61.44 0
v -10.24 -60.16 0
v -11.52 -61.44 0
v -12.8 -61.44 0
v -14.08 -61.44 0
v -15.36 -61.44 0
v -16.64 -61.44 0
v -17.92 -61.44 0
v -19.2 -61.44 0
v -20.48 -61.44 0
v -21.76 -61.44 0
v -23.04 -61.44 0
v -24.32 -61.44 0
v -25.6 -61.44 0
v -26.88 -61.44 0
v -28.16 -61.44 0
v -29.44 -61.44 0
v -30.72 -61.44 0
v -32 -61.44 0
v -33.28 -61.44 0
v -34.56 -61.44 0
v -35.84 -61.44 0
v 0 -62.72 0
v -1.28 -62.72 0
v -2.56 -62.72 0
v -3.84 -62.72 0
v -5.12 -62.72 0
v -6.4 -62.72 0
v -7.68 -62.72 0
v -8.96 -62.72 0
v -10.24 -62.72 0
v -11.52 -62.72 0
v -12.8 -62.72 0
v -14.08 -62.72 0
v -15.36 -62.72 0
v -16.64 -62.72 0
v -17.92 -62.72 0
v -19.2 -62.72 0
v -20.48 -62.72 0
v -21.76 -62.72 0
v -23.04 -62.72 0
v -24.32 -62.72 0
v -25.6 -62.72 0
v -26.88 -62.72 0
v -28.16 -62.72 0
v -29.44 -62.72 0
v -30.72 -62.72 0
v -32 -62.72 0
v -33.28 -62.72 0
v -34.56 -62.72 0
v -35.84 -62.72 0
v 0 -64 0
v -1.28 -64 0
v -2.56 -64 0
v -3.84 -64 0
v -5.12 -64 0
v -6.4 -64 0
v -7.68 -64 0
v -8.96 -64 0
v -10.24 -64 0
v -11.52 -64 0
v -12.8 -64 0
v -14.08 -64 0
v -15.36 -64 0
v -16.64 -64 0
v -17.92 -64 0
v -19.2 -64 0
v -20.48 -64 0
v -21.76 -64 0
v -23.04 -64 0
v -24.32 -64 0
v -25.6 -64 0
v -26.88 -64 0
v -28.16 -64 0
v -29.44 -64 0
v -30.72 -64 0
v -32 -64 0
v -33.28 -64 0
v -34.56 -64 0
v -35.84 -64 0

# Texture cooridinates (Count = 12)
vt 0.04546009 0.9166768
vt 0.09090354 0.9166768
vt 0.09090354 0.9999898
vt 0.04546009 0.9999898
vt 0.09091464 0.9166768
vt 0.1363581 0.9166768
vt 0.1363581 0.9999898
vt 0.09091464 0.9999898
vt 0.1363692 0.9166768
vt 0.1818126 0.9166768
vt 0.1818126 0.9999898
vt 0.1363692 0.9999898

# Normal
vn 0 0 -1

# Groups (Count = 1)

g mesh_0001
f 1/1/1 2/2/1 3/3/1 4/4/1
f 2/5/1 5/6/1 6/7/1 3/8/1
f 5/9/1 7/10/1 8/11/1 6/12/1
f 7/9/1 9/10/1 10/11/1 8/12/1
f 9/1/1 11/2/1 12/3/1 10/4/1
f 13/9/1 14/10/1 15/11/1 16/12/1
f 14/1/1 17/2/1 18/3/1 15/4/1
f 17/1/1 19/2/1 20/3/1 18/4/1
f 19/5/1 21/6/1 22/7/1 20/8/1
f 21/9/1 23/10/1 24/11/1 22/12/1
f 23/1/1 25/2/1 26/3/1 24/4/1
f 25/1/1 27/2/1 28/3/1 26/4/1
f 27/1/1 29/2/1 30/3/1 28/4/1
f 29/1/1 31/2/1 32/3/1 30/4/1
f 31/1/1 33/2/1 34/3/1 32/4/1
f 33/1/1 35/2/1 36/3/1 34/4/1
f 35/1/1 37/2/1 38/3/1 36/4/1
f 37/1/1 39/2/1 40/3/1 38/4/1
f 39/1/1 41/2/1 42/3/1 40/4/1
f 41/1/1 43/2/1 44/3/1 42/4/1
f 43/1/1 45/2/1 46/3/1 44/4/1
f 45/1/1 47/2/1 48/3/1 46/4/1
f 47/5/1 49/6/1 50/7/1 48/8/1
f 49/9/1 51/10/1 52/11/1 50/12/1
f 53/1/1 54/2/1 2/3/1 1/4/1
f 54/5/1 55/6/1 5/7/1 2/8/1
f 55/9/1 56/10/1 7/11/1 5/12/1
f 56/5/1 57/6/1 9/7/1 7/8/1
f 57/9/1 58/10/1 11/11/1 9/12/1
f 59/9/1 60/10/1 14/11/1 13/12/1
f 60/9/1 61/10/1 17/11/1 14/12/1
f 61/9/1 62/10/1 19/11/1 17/12/1
f 62/9/1 63/10/1 21/11/1 19/12/1
f 63/9/1 64/10/1 23/11/1 21/12/1
f 64/9/1 65/10/1 25/11/1 23/12/1
f 65/9/1 66/10/1 27/11/1 25/12/1
f 66/1/1 67/2/1 29/3/1 27/4/1
f 67/5/1 68/6/1 31/7/1 29/8/1
f 68/9/1 69/10/1 33/11/1 31/12/1
f 69/9/1 70/10/1 35/11/1 33/12/1
f 70/9/1 71/10/1 37/11/1 35/12/1
f 71/9/1 72/10/1 39/11/1 37/12/1
f 72/9/1 73/10/1 41/11/1 39/12/1
f 73/9/1 74/10/1 43/11/1 41/12/1
f 74/9/1 75/10/1 45/11/1 43/12/1
f 75/1/1 76/2/1 47/3/1 45/4/1
f 76/5/1 77/6/1 49/7/1 47/8/1
f 77/9/1 78/10/1 51/11/1 49/12/1
f 79/1/1 80/2/1 54/3/1 53/4/1
f 80/5/1 81/6/1 55/7/1 54/8/1
f 81/9/1 82/10/1 56/11/1 55/12/1
f 82/1/1 83/2/1 57/3/1 56/4/1
f 83/1/1 84/2/1 58/3/1 57/4/1
f 84/5/1 85/6/1 86/7/1 58/8/1
f 85/9/1 87/10/1 88/11/1 86/12/1
f 87/1/1 89/2/1 90/3/1 88/4/1
f 89/5/1 91/6/1 59/7/1 90/8/1
f 91/9/1 92/10/1 60/11/1 59/12/1
f 92/5/1 93/6/1 61/7/1 60/8/1
f 93/9/1 94/10/1 62/11/1 61/12/1
f 94/1/1 95/2/1 63/3/1 62/4/1
f 95/1/1 96/2/1 64/3/1 63/4/1
f 96/1/1 97/2/1 65/3/1 64/4/1
f 97/5/1 98/6/1 66/7/1 65/8/1
f 98/1/1 99/2/1 67/3/1 66/4/1
f 99/1/1 100/2/1 68/3/1 67/4/1
f 100/1/1 101/2/1 69/3/1 68/4/1
f 101/1/1 102/2/1 70/3/1 69/4/1
f 102/5/1 103/6/1 71/7/1 70/8/1
f 103/1/1 104/2/1 72/3/1 71/4/1
f 104/1/1 105/2/1 73/3/1 72/4/1
f 105/1/1 106/2/1 74/3/1 73/4/1
f 106/5/1 107/6/1 75/7/1 74/8/1
f 107/1/1 108/2/1 76/3/1 75/4/1
f 108/5/1 109/6/1 77/7/1 76/8/1
f 109/9/1 110/10/1 78/11/1 77/12/1
f 111/1/1 112/2/1 80/3/1 79/4/1
f 112/1/1 113/2/1 81/3/1 80/4/1
f 113/1/1 114/2/1 82/3/1 81/4/1
f 114/1/1 115/2/1 83/3/1 82/4/1
f 115/1/1 116/2/1 84/3/1 83/4/1
f 116/1/1 117/2/1 85/3/1 84/4/1
f 117/1/1 118/2/1 87/3/1 85/4/1
f 118/1/1 119/2/1 89/3/1 87/4/1
f 119/1/1 120/2/1 91/3/1 89/4/1
f 120/1/1 121/2/1 92/3/1 91/4/1
f 121/1/1 122/2/1 93/3/1 92/4/1
f 122/1/1 123/2/1 94/3/1 93/4/1
f 123/1/1 124/2/1 95/3/1 94/4/1
f 124/1/1 125/2/1 96/3/1 95/4/1
f 125/1/1 126/2/1 97/3/1 96/4/1
f 126/1/1 127/2/1 98/3/1 97/4/1
f 127/1/1 128/2/1 99/3/1 98/4/1
f 128/1/1 129/2/1 100/3/1 99/4/1
f 129/1/1 130/2/1 101/3/1 100/4/1
f 130/1/1 131/2/1 102/3/1 101/4/1
f 131/1/1 132/2/1 103/3/1 102/4/1
f 132/1/1 133/2/1 104/3/1 103/4/1
f 133/1/1 134/2/1 105/3/1 104/4/1
f 134/1/1 135/2/1 106/3/1 105/4/1
f 135/1/1 136/2/1 107/3/1 106/4/1
f 136/1/1 137/2/1 108/3/1 107/4/1
f 137/5/1 138/6/1 109/7/1 108/8/1
f 138/9/1 139/10/1 110/11/1 109/12/1
f 140/1/1 141/2/1 112/3/1 111/4/1
f 141/1/1 142/2/1 113/3/1 112/4/1
f 142/1/1 143/2/1 114/3/1 113/4/1
f 143/1/1 144/2/1 115/3/1 114/4/1
f 144/5/1 145/6/1 116/7/1 115/8/1
f 145/9/1 146/10/1 117/11/1 116/12/1
f 146/9/1 147/10/1 118/11/1 117/12/1
f 147/1/1 148/2/1 119/3/1 118/4/1
f 148/5/1 149/6/1 120/7/1 119/8/1
f 149/9/1 150/10/1 121/11/1 120/12/1
f 150/9/1 151/10/1 122/11/1 121/12/1
f 151/9/1 152/10/1 123/11/1 122/12/1
f 152/1/1 153/2/1 124/3/1 123/4/1
f 153/5/1 154/6/1 125/7/1 124/8/1
f 154/1/1 155/2/1 126/3/1 125/4/1
f 155/1/1 156/2/1 127/3/1 126/4/1
f 156/5/1 157/6/1 128/7/1 127/8/1
f 157/1/1 158/2/1 129/3/1 128/4/1
f 158/1/1 159/2/1 130/3/1 129/4/1
f 159/5/1 160/6/1 131/7/1 130/8/1
f 160/1/1 161/2/1 132/3/1 131/4/1
f 161/5/1 162/6/1 133/7/1 132/8/1
f 162/1/1 163/2/1 134/3/1 133/4/1
f 163/1/1 164/2/1 135/3/1 134/4/1
f 164/1/1 165/2/1 136/3/1 135/4/1
f 165/5/1 166/6/1 137/7/1 136/8/1
f 166/9/1 167/10/1 138/11/1 137/12/1
f 167/9/1 168/10/1 139/11/1 138/12/1

